# xmcd
# 
# Track frame offsets:
#     150
#     14072
#     31514
#     46393
#     64532
#     79412
#     91967
#     112774
#     130168
#     146016
# 
# Disc length: 2103
# 
# Revision: 3
# Processed by: cddbd v1.5.2PL0 Copyright (c) Steve Scherf et al.
# Submitted via: BonkEnc v1.0
# 
DISCID=7b08350a
DTITLE=George Canyon - One Good Friend
DYEAR=2004
DGENRE=Country
TTITLE0=Who Would You Be
TTITLE1=Unfinished
TTITLE2=Workin' On Ten
TTITLE3=My Name
TTITLE4=I'll Never Do Better Than You
TTITLE5=Hell Or High Water
TTITLE6=Letting Go
TTITLE7=You're In The Right Place
TTITLE8=Bird In December
TTITLE9=One Good Friend
EXTD=YEAR: 2004 ID3G: 2
EXTT0=
EXTT1=
EXTT2=
EXTT3=
EXTT4=
EXTT5=
EXTT6=
EXTT7=
EXTT8=
EXTT9=
PLAYORDER=
